<svg xmlns="http://www.w3.org/2000/svg" viewBox="0 0 52 52"><defs><style>.cls-1{fill:#fff;}.cls-2{fill:#333;}.cls-3{font-size:21px;fill:#e70000;font-family:AauxNext-Bold, Aaux Next;font-weight:700;}.cls-4{letter-spacing:-0.04em;}</style></defs><g id="Layer_2" data-name="Layer 2"><g id="Layer_1-2" data-name="Layer 1"><rect class="cls-1" x="0.5" y="0.5" width="51" height="51" rx="2.5"/><path class="cls-2" d="M49,1a2,2,0,0,1,2,2V49a2,2,0,0,1-2,2H3a2,2,0,0,1-2-2V3A2,2,0,0,1,3,1H49m0-1H3A3,3,0,0,0,0,3V49a3,3,0,0,0,3,3H49a3,3,0,0,0,3-3V3a3,3,0,0,0-3-3Z"/><text/><text class="cls-3" transform="translate(3.53 23.28)">b<tspan class="cls-4" x="10.69" y="0">r</tspan><tspan x="18.25" y="0">ain</tspan><tspan x="0" y="21">child</tspan></text></g></g></svg>