<svg xmlns="http://www.w3.org/2000/svg" viewBox="0 0 152 52"><defs><style>.cls-1,.cls-4{fill:#fff;}.cls-2{fill:#333;}.cls-3{fill:#003db0;}.cls-4{font-size:12px;letter-spacing:0.02em;}.cls-4,.cls-7{font-family:AauxNext-Bold, Aaux Next;font-weight:700;}.cls-5{letter-spacing:0.03em;}.cls-6{letter-spacing:0.01em;}.cls-7{font-size:30px;fill:#d50000;}.cls-8{letter-spacing:-0.04em;}</style></defs><g id="Layer_2" data-name="Layer 2"><g id="Layer_1-2" data-name="Layer 1"><rect class="cls-1" x="0.5" y="0.5" width="151" height="51" rx="2.5"/><path class="cls-2" d="M149,1a2,2,0,0,1,2,2V49a2,2,0,0,1-2,2H3a2,2,0,0,1-2-2V3A2,2,0,0,1,3,1H149m0-1H3A3,3,0,0,0,0,3V49a3,3,0,0,0,3,3H149a3,3,0,0,0,3-3V3a3,3,0,0,0-3-3Z"/><path class="cls-3" d="M1,33.16H151a0,0,0,0,1,0,0V49a2,2,0,0,1-2,2H3a2,2,0,0,1-2-2V33.16A0,0,0,0,1,1,33.16Z"/><text class="cls-4" transform="translate(14.43 47.16)">B<tspan class="cls-5" x="7.7" y="0">UILDING SO</tspan><tspan class="cls-6" x="73.56" y="0">L</tspan><tspan class="cls-5" x="80.12" y="0">UTIONS</tspan></text><text class="cls-7" transform="translate(13.53 28.14)">b<tspan class="cls-8" x="15.27" y="0">r</tspan><tspan x="26.07" y="0">ainchild</tspan></text></g></g></svg>